<svg xmlns="http://www.w3.org/2000/svg" width="52" height="38" fill="none" viewBox="0 0 52 38"><path fill="#fff" fill-rule="evenodd" d="M9.856 18.355c-.045.064-.05.785-.05 7.035v6.963l.076.077c.109.108.21.12.98.107l.683-.01.09-.09.089-.088.017-2.937c.019-3.125.016-3.063.18-3.71.255-1.01 1.157-1.63 2.382-1.637.507-.002.823.06 1.194.238.582.278.914.795 1.085 1.686.066.345.069.461.081 3.332.014 3.304.001 3.126.227 3.188.157.044 1.342.044 1.499 0 .23-.063.217.1.217-3.002 0-1.6-.014-2.957-.033-3.196-.106-1.344-.441-2.186-1.149-2.886a3.931 3.931 0 0 0-2.106-1.1c-1.26-.221-2.407.065-3.268.818-.104.09-.213.16-.242.155-.047-.01-.054-.212-.068-2.263-.015-2.084-.02-2.259-.073-2.336-.083-.121-.147-.143-.87-.286-.765-.152-.87-.159-.941-.058Zm40.134.059c-.337.068-.66.146-.72.174-.204.096-.199.032-.199 2.555 0 2.05-.005 2.287-.051 2.325-.061.05-.065.048-.476-.25-.37-.269-.824-.536-1.115-.657-.595-.248-1.31-.35-2.015-.29-1.188.102-2.167.551-3.083 1.414-.817.77-1.295 1.634-1.52 2.75-.098.492-.106 1.573-.013 2.068.08.427.299 1.09.48 1.45.82 1.628 2.42 2.713 4.196 2.845 1.127.083 1.999-.19 3.085-.966.487-.348.491-.347.512.139.015.36.02.382.105.467l.09.089.682.01c.77.012.872.001.98-.107l.077-.077V25.39c0-7.837.026-7.11-.252-7.103-.083.002-.426.059-.763.127Zm-45.3 3.86c-1.088.115-1.994.488-2.786 1.146C.652 24.461.004 25.87.006 27.537c.002 1.366.434 2.52 1.33 3.555.426.49.95.899 1.522 1.185 1.19.596 2.754.703 4.042.276.59-.196 1.267-.597 1.777-1.054.42-.377.451-.417.451-.573 0-.131-.013-.148-.508-.643-.64-.638-.606-.63-1.023-.232-.746.711-1.28.959-2.16 1.001-.927.045-1.744-.226-2.403-.796-.513-.443-.887-1.157-1.012-1.93a6.935 6.935 0 0 1-.016-1.499c.16-1.145.816-2.059 1.816-2.526.482-.225.724-.272 1.422-.272.537 0 .643.01.86.072.528.153.87.357 1.362.813.29.268.323.29.447.29.13 0 .149-.015.642-.508.659-.658.658-.654.092-1.14-.808-.694-1.605-1.087-2.5-1.234a7.426 7.426 0 0 0-1.458-.047Zm18.924.002c-1.107.116-2.034.569-2.864 1.398-.608.607-1.003 1.232-1.253 1.98-.206.616-.25.901-.269 1.707-.014.636-.008.772.051 1.119.197 1.152.643 2.043 1.435 2.863.866.899 1.88 1.366 3.152 1.453 1.927.131 3.52-.628 4.625-2.205.22-.315.255-.445.149-.551-.08-.08-1.308-.587-1.418-.587-.12.001-.134.014-.305.274a3.316 3.316 0 0 1-.814.805c-.867.553-2.033.686-2.986.338-.842-.307-1.53-1.09-1.814-2.066-.077-.263-.07-.364.032-.443.085-.067.09-.067 3.769-.067h3.684l.083-.099c.082-.096.084-.11.084-.564 0-1.543-.428-2.775-1.322-3.805-.997-1.149-2.462-1.714-4.018-1.55Zm10.708-.014a5.12 5.12 0 0 0-1.45.343c-1.521.62-2.703 1.965-3.093 3.52-.12.484-.158.814-.158 1.397 0 .595.038.915.172 1.432.617 2.381 2.883 4.028 5.287 3.841.816-.063 1.484-.334 2.352-.952.204-.145.397-.265.427-.265.03 0 .07.027.089.062.022.041.033 1.01.033 2.913 0 2.808.001 2.852.065 2.915.089.089.169.082.961-.077.646-.13.694-.145.79-.24l.102-.103v-6.804c0-6.645-.001-6.805-.061-6.871-.084-.093-.15-.088-.915.064-.833.166-.955.163-1.222-.029-.938-.674-1.508-.958-2.172-1.083-.268-.051-.971-.087-1.207-.063Zm-9.639 1.768c.839.146 1.552.706 1.981 1.557.113.223.324.836.324.94 0 .035-.035.1-.079.143l-.08.079h-2.725c-2.682 0-2.726-.001-2.79-.064-.089-.09-.081-.214.034-.556.523-1.56 1.803-2.366 3.335-2.099Zm10.977.078a3.093 3.093 0 0 1 1.926 1.595c.402.804.5 2.017.246 3.01-.147.57-.511 1.19-.918 1.562-.841.77-2.139 1.001-3.256.582-.782-.293-1.465-.925-1.778-1.645-.405-.93-.422-2.3-.042-3.243a3.276 3.276 0 0 1 1.606-1.682c.49-.225.759-.273 1.442-.26.424.01.581.026.774.08Zm11.117-.002c1.152.337 1.934 1.207 2.216 2.466.076.342.096 1.275.035 1.674-.214 1.39-1.089 2.415-2.33 2.726-.238.06-.374.072-.802.071-.452 0-.555-.011-.825-.084-.764-.206-1.503-.754-1.9-1.41-.45-.744-.607-1.778-.431-2.84.176-1.06.73-1.843 1.657-2.336a3.76 3.76 0 0 1 .947-.327 5.43 5.43 0 0 1 .68-.019c.41.008.565.025.752.08ZM25.014.507c-.558.081-.866.204-1.634.651l-2.296 1.33c-.974.562-1.829 1.068-1.899 1.123l-.127.1 4.427.016c2.435.009 4.431.007 4.437-.005.02-.045-1.571-2.755-1.712-2.915-.218-.248-.419-.337-.744-.332a4.306 4.306 0 0 0-.452.032ZM26.8.682a467.536 467.536 0 0 1 2.562 4.448c.776 1.358.882 1.507 1.211 1.7a1.64 1.64 0 0 0 2.017-.28c.554-.595.6-1.386.12-2.117-.176-.267-.67-.781-.875-.91-.074-.046-1.165-.68-2.424-1.407C27.388.946 26.8.623 26.8.682Zm-8.024 3.643a1.41 1.41 0 0 0-.305.151c-.134.09-.179.152-.324.444a5.16 5.16 0 0 0-.259.628l-.09.29-.009 3.008c-.005 1.676.004 3.03.02 3.058.021.04.053.005.141-.154.063-.113.27-.474.46-.802a710.583 710.583 0 0 0 1.364-2.366 5.11 5.11 0 0 0 .166-.299 85.183 85.183 0 0 0 .853-1.461 385.257 385.257 0 0 1 1.408-2.442l.063-.105-1.67.002c-1.348.002-1.697.011-1.818.048Zm.339 6.47c-.422.732-.802 1.417-.845 1.523-.112.276-.127.545-.042.738.176.398.682.98 1.087 1.251.122.082.81.486 1.527.898.717.413 1.47.847 1.674.966 1.52.883 1.465.852 1.673.934l.172.068-.048-.074c-.055-.085-.712-1.22-3.232-5.587-.563-.975-1.059-1.834-1.101-1.91a.801.801 0 0 0-.088-.137c-.006 0-.355.599-.777 1.33Zm12.049.024c-.437.07-.847.324-1.084.668-.053.077-.336.557-.628 1.066-.293.51-.548.945-.567.967-.028.035.284.04 1.687.033l1.72-.01.225-.112c.258-.13.339-.23.435-.541.07-.23.084-.607.029-.845-.184-.798-1.01-1.356-1.817-1.226Zm-7.971 3.266c0 .068 1.599 2.776 1.72 2.914.294.333.532.405 1.1.334.38-.048.742-.14.98-.247.262-.119 4.81-2.75 4.965-2.873l.133-.105h-4.377c-2.407-.001-4.41-.01-4.449-.02-.04-.011-.072-.012-.072-.002Z" clip-rule="evenodd"/></svg>