<svg width="421" height="102" viewBox="0 0 421 102" fill="none" xmlns="http://www.w3.org/2000/svg">
<path d="M49.704 101.584C56.744 101.584 63.036 100.396 68.58 98.02C74.212 95.644 78.964 92.52 82.836 88.648C86.708 84.688 89.48 80.376 91.152 75.712L75.048 68.188C73.112 73.116 69.944 77.208 65.544 80.464C61.232 83.632 55.952 85.216 49.704 85.216C43.544 85.216 38.132 83.764 33.468 80.86C28.804 77.956 25.152 73.952 22.512 68.848C19.872 63.656 18.552 57.628 18.552 50.764C18.552 43.9 19.872 37.916 22.512 32.812C25.152 27.62 28.804 23.616 33.468 20.8C38.132 17.896 43.544 16.444 49.704 16.444C55.952 16.444 61.232 18.072 65.544 21.328C69.944 24.496 73.112 28.544 75.048 33.472L91.152 25.948C89.48 21.284 86.708 17.016 82.836 13.144C78.964 9.184 74.212 6.016 68.58 3.64C63.036 1.264 56.744 0.0759962 49.704 0.0759962C42.664 0.0759962 36.152 1.352 30.168 3.90399C24.184 6.36799 18.992 9.888 14.592 14.464C10.192 18.952 6.76 24.32 4.296 30.568C1.832 36.728 0.6 43.46 0.6 50.764C0.6 58.068 1.832 64.844 4.296 71.092C6.76 77.252 10.192 82.62 14.592 87.196C18.992 91.772 24.184 95.336 30.168 97.888C36.152 100.352 42.664 101.584 49.704 101.584ZM101.107 100H119.059V63.7H135.955L156.283 100H176.611L154.039 60.532C159.495 58.244 163.807 54.724 166.975 49.972C170.231 45.22 171.859 39.456 171.859 32.68C171.859 25.992 170.407 20.36 167.503 15.784C164.599 11.208 160.551 7.73199 155.359 5.356C150.255 2.89199 144.359 1.65999 137.671 1.65999H101.107V100ZM119.059 47.86V17.5H137.935C142.775 17.5 146.647 18.864 149.551 21.592C152.455 24.32 153.907 28.016 153.907 32.68C153.907 37.256 152.455 40.952 149.551 43.768C146.647 46.496 142.775 47.86 137.935 47.86H119.059ZM183.756 100H249.096V84.16H201.708V58.552H246.456V42.712H201.708V17.5H249.096V1.65999H183.756V100ZM257.64 100H289.716C300.1 100 309.12 97.888 316.776 93.664C324.52 89.44 330.504 83.632 334.728 76.24C338.952 68.848 341.064 60.356 341.064 50.764C341.064 41.084 338.952 32.592 334.728 25.288C330.504 17.896 324.564 12.132 316.908 7.996C309.252 3.77199 300.188 1.65999 289.716 1.65999H257.64V100ZM275.592 84.16V17.5H290.112C296.8 17.5 302.564 18.864 307.404 21.592C312.332 24.32 316.16 28.192 318.888 33.208C321.616 38.136 322.98 43.988 322.98 50.764C322.98 57.54 321.616 63.436 318.888 68.452C316.248 73.468 312.464 77.34 307.536 80.068C302.608 82.796 296.8 84.16 290.112 84.16H275.592ZM385.843 101.584C392.619 101.584 398.559 100.352 403.663 97.888C408.767 95.424 412.771 92.036 415.675 87.724C418.579 83.412 420.031 78.44 420.031 72.808C420.031 59.696 412.199 50.632 396.535 45.616L378.451 39.94C374.931 38.796 372.247 37.212 370.399 35.188C368.639 33.076 367.759 30.656 367.759 27.928C367.759 24.32 369.123 21.416 371.851 19.216C374.667 16.928 378.363 15.784 382.939 15.784C388.043 15.784 392.531 17.148 396.403 19.876C400.275 22.516 403.179 26.3 405.115 31.228L419.899 24.628C417.259 17.236 412.639 11.296 406.039 6.808C399.527 2.32 391.827 0.0759962 382.939 0.0759962C376.515 0.0759962 370.795 1.308 365.779 3.772C360.851 6.148 356.979 9.492 354.163 13.804C351.435 18.116 350.071 23.088 350.071 28.72C350.071 35.144 352.007 40.732 355.879 45.484C359.751 50.148 365.515 53.712 373.171 56.176L392.047 62.248C395.479 63.392 398.031 64.888 399.703 66.736C401.463 68.584 402.343 70.96 402.343 73.864C402.343 77.472 400.891 80.376 397.987 82.576C395.171 84.776 391.431 85.876 386.767 85.876C381.135 85.876 376.075 84.292 371.587 81.124C367.099 77.868 363.667 73.424 361.291 67.792L346.375 74.26C348.135 79.716 350.907 84.512 354.691 88.648C358.563 92.696 363.139 95.864 368.419 98.152C373.787 100.44 379.595 101.584 385.843 101.584Z" fill="url(#paint0_linear_2531_51)"/>
<defs>
<linearGradient id="paint0_linear_2531_51" x1="-6" y1="45.9999" x2="427" y2="45.9999" gradientUnits="userSpaceOnUse">
<stop stop-color="#0D59D1"/>
<stop offset="1" stop-color="#3DB8D2"/>
</linearGradient>
</defs>
</svg>
