<svg xmlns="http://www.w3.org/2000/svg" width="39" height="38" fill="none" viewBox="0 0 39 38"><path fill="#fff" fill-rule="evenodd" d="M17.097.09C12.45.538 7.835 2.91 4.741 6.44a19.028 19.028 0 0 0-.977 23.929c.733.989 2.242 2.57 3.212 3.364 4.66 3.82 10.943 5.18 16.867 3.653 4.784-1.234 9.004-4.437 11.554-8.77 4.378-7.438 3.154-16.917-2.978-23.049C28.387 1.535 22.805-.46 17.097.09Zm10.237 15.136c.241.241.286.352.233.57-.098.403-.388.647-.755.637-.69-.02-.973-.823-.447-1.274.36-.31.609-.293.969.067ZM19 18.643v3.321l-.619-.03-.618-.029-.026-3.167c-.015-1.741-.005-3.222.021-3.29.031-.082.257-.125.645-.125h.597v3.32Zm14.254 0v3.321l-.614-.03c-.555-.026-.62-.052-.67-.265-.053-.223-.064-.226-.202-.059-.335.404-1.405.58-2.046.338-.377-.142-.796-.553-1.055-1.033-.292-.541-.31-2.097-.03-2.623.633-1.19 1.991-1.603 2.946-.898.152.113.301.205.33.205.03 0 .054-.482.054-1.072 0-.59.03-1.102.066-1.138.037-.037.326-.066.644-.066h.577v3.32Zm-11.462-2.157.03.668.47.03.47.03v1.078h-.99v1.181c0 1.331.082 1.524.624 1.472.28-.027.314.003.427.39.115.39.108.43-.09.57-.277.193-1.276.196-1.647.004-.465-.24-.601-.756-.601-2.277v-1.328l-.371-.03-.371-.031-.03-.52-.03-.52h.802v-.627c0-.344.03-.656.066-.692.036-.037.324-.066.639-.066h.573l.029.668Zm-6.16.845c.765.376.839.61.877 2.768l.032 1.856h-.651c-.579 0-.651-.022-.651-.193 0-.182-.021-.18-.421.049-.51.291-1.396.33-1.917.082-.967-.459-1.117-1.934-.264-2.585.514-.392 1.471-.435 2.132-.096l.47.241v-.432c0-.481-.217-.78-.647-.887-.415-.104-1.134.02-1.444.25-.33.244-.422.214-.64-.206-.203-.394-.144-.511.385-.767.924-.448 1.933-.477 2.74-.08Zm-10.156.046c.028.095.217.787.42 1.537.202.75.4 1.33.438 1.287.038-.043.279-.735.535-1.538l.466-1.46h1.166l.463 1.46c.255.803.494 1.495.531 1.538.071.08.083.046.603-1.835l.322-1.163h.628c.388 0 .627.042.627.108 0 .06-.153.606-.341 1.213-.188.607-.503 1.628-.699 2.268l-.357 1.163H8.937l-.48-1.535c-.263-.844-.51-1.534-.55-1.534-.038 0-.1.123-.137.272-.036.15-.244.84-.462 1.535l-.397 1.262H5.545l-.257-.866c-.142-.477-.363-1.2-.492-1.609-.296-.936-.643-2.13-.643-2.213 0-.035.287-.064.637-.064.521 0 .646.032.687.174Zm21.938 2.202v2.376h-1.188v-4.752h1.188v2.376Zm2.72-1.057a1.52 1.52 0 0 0-.05 2.076c.252.282.342.317.811.317.35 0 .62-.063.8-.185.266-.18.272-.206.272-1.154v-.97l-.333-.207c-.2-.124-.5-.206-.752-.206-.343 0-.48.06-.748.329Zm-16.34 1.393c-.482.215-.596.775-.228 1.109.274.247 1.037.254 1.405.013.354-.232.379-.788.045-1.003-.343-.22-.878-.273-1.223-.12Zm10.983.76c.537.422.242 1.379-.423 1.379-.426 0-.593-.09-.757-.407-.184-.357-.1-.723.228-.98.32-.253.625-.25.952.008Z" clip-rule="evenodd"/></svg>